<?xml version="1.0" encoding="UTF-8" standalone="no"?>
<!-- Created with Inkscape (http://www.inkscape.org/) -->

<svg
   xmlns:dc="http://purl.org/dc/elements/1.1/"
   xmlns:cc="http://creativecommons.org/ns#"
   xmlns:rdf="http://www.w3.org/1999/02/22-rdf-syntax-ns#"
   xmlns:svg="http://www.w3.org/2000/svg"
   xmlns="http://www.w3.org/2000/svg"
   xmlns:sodipodi="http://sodipodi.sourceforge.net/DTD/sodipodi-0.dtd"
   xmlns:inkscape="http://www.inkscape.org/namespaces/inkscape"
   width="16"
   height="16"
   viewBox="0 0 4.2333333 4.2333334"
   version="1.1"
   id="svg109"
   inkscape:version="0.92.4 5da689c313, 2019-01-14"
   sodipodi:docname="favicon-16.svg">
  <defs
     id="defs103">
    <clipPath
       clipPathUnits="userSpaceOnUse"
       id="clipPath18">
      <path
         d="M 0,1133.86 H 850.39 V 0 H 0 Z"
         id="path16"
         inkscape:connector-curvature="0" />
    </clipPath>
  </defs>
  <sodipodi:namedview
     id="base"
     pagecolor="#ffffff"
     bordercolor="#666666"
     borderopacity="1.0"
     inkscape:pageopacity="0.0"
     inkscape:pageshadow="2"
     inkscape:zoom="90.509668"
     inkscape:cx="13.363951"
     inkscape:cy="8.9938596"
     inkscape:document-units="mm"
     inkscape:current-layer="layer1"
     showgrid="false"
     units="px"
     inkscape:window-width="3744"
     inkscape:window-height="2100"
     inkscape:window-x="0"
     inkscape:window-y="54"
     inkscape:window-maximized="1" />
  <metadata
     id="metadata106">
    <rdf:RDF>
      <cc:Work
         rdf:about="">
        <dc:format>image/svg+xml</dc:format>
        <dc:type
           rdf:resource="http://purl.org/dc/dcmitype/StillImage" />
        <dc:title></dc:title>
      </cc:Work>
    </rdf:RDF>
  </metadata>
  <style>
    path {
      fill: #706f6f;
    }
    
    @media (prefers-color-scheme: dark) {
      path {
        fill: #e8e6e3;
      }
    }
  </style>
  <g
     inkscape:label="Layer 1"
     inkscape:groupmode="layer"
     id="layer1"
     transform="translate(0,-292.76665)">
    <g
       id="g12"
       transform="matrix(0.09232201,0,0,-0.09232201,-35.668348,347.02735)">
      <g
         id="g14"
         clip-path="url(#clipPath18)">
        <g
           id="g20"
           transform="translate(413.9307,543.8033)">
          <path
             d="m 0,0 c -1.456,0 -2.906,0.232 -4.309,0.689 -3.743,1.221 -6.803,3.991 -8.398,7.599 -0.787,1.782 -1.186,3.667 -1.186,5.605 0,0.954 0.1,1.915 0.297,2.856 0.111,0.532 0.262,1.053 0.435,1.565 0.055,0.163 0.121,0.32 0.182,0.479 0.134,0.353 0.279,0.7 0.442,1.041 0.037,0.076 0.077,0.149 0.114,0.225 0.089,-0.525 0.212,-1.041 0.353,-1.551 0.035,-0.127 0.073,-0.253 0.111,-0.378 0.149,-0.488 0.316,-0.971 0.513,-1.442 0.01,-0.024 0.018,-0.048 0.028,-0.073 0.2,-0.469 0.431,-0.927 0.678,-1.377 0.01,-0.018 0.022,-0.038 0.032,-0.056 0.064,-0.117 0.13,-0.231 0.197,-0.345 0.274,-0.465 0.563,-0.923 0.887,-1.362 l 0.146,-0.199 0.022,-0.006 c 1.218,-1.594 2.701,-2.926 4.429,-3.947 0.336,-0.198 0.679,-0.38 1.027,-0.552 0.06,-0.029 0.121,-0.055 0.182,-0.083 0.311,-0.149 0.626,-0.287 0.945,-0.414 0.027,-0.01 0.054,-0.02 0.081,-0.031 1.786,-0.7 3.688,-1.072 5.609,-1.072 0.077,0 0.151,0.01 0.228,0.012 0.405,0.006 0.808,0.023 1.206,0.059 0.503,0.047 0.999,0.123 1.491,0.219 0.158,0.03 0.313,0.071 0.469,0.106 0.335,0.077 0.667,0.16 0.995,0.256 0.174,0.053 0.347,0.11 0.519,0.167 0.311,0.106 0.618,0.221 0.921,0.345 0.164,0.066 0.327,0.132 0.488,0.204 0.334,0.15 0.659,0.316 0.981,0.489 0.117,0.064 0.237,0.119 0.352,0.185 0.43,0.246 0.849,0.512 1.255,0.799 0.086,0.06 0.167,0.131 0.252,0.193 0.316,0.233 0.625,0.476 0.922,0.733 0.132,0.113 0.258,0.234 0.386,0.352 0.145,0.134 0.296,0.259 0.436,0.398 C 12.658,5.071 6.911,0 0,0 m -9.292,-0.072 c -7.675,0 -13.921,6.225 -13.96,13.887 l 10e-4,0.175 c 0.027,3.94 1.741,7.707 4.702,10.337 0.841,0.748 1.755,1.383 2.724,1.9 1.615,0.862 3.385,1.394 5.237,1.565 0.931,0.085 1.882,0.074 2.832,-0.032 0.07,-0.009 0.14,-0.019 0.21,-0.029 0.206,-0.025 0.412,-0.069 0.618,-0.105 -0.004,-0.002 -0.008,-0.004 -0.011,-0.006 -0.484,-0.246 -0.951,-0.524 -1.406,-0.82 -0.11,-0.071 -0.218,-0.146 -0.325,-0.22 -0.424,-0.29 -0.837,-0.598 -1.23,-0.929 -0.032,-0.026 -0.065,-0.05 -0.097,-0.077 -0.41,-0.351 -0.797,-0.73 -1.169,-1.123 -0.005,-0.005 -0.009,-0.011 -0.014,-0.015 -0.09,-0.096 -0.179,-0.193 -0.267,-0.291 -0.369,-0.412 -0.725,-0.836 -1.049,-1.287 l -0.145,-0.2 10e-4,-0.023 c -0.258,-0.372 -0.509,-0.747 -0.731,-1.134 -0.2,-0.349 -0.385,-0.702 -0.556,-1.062 -0.512,-1.079 -0.893,-2.21 -1.138,-3.383 -0.218,-1.042 -0.328,-2.107 -0.328,-3.163 0,-2.148 0.442,-4.237 1.314,-6.21 0.204,-0.462 0.435,-0.908 0.681,-1.343 0.077,-0.137 0.163,-0.269 0.245,-0.403 0.179,-0.295 0.363,-0.585 0.561,-0.867 0.103,-0.147 0.21,-0.29 0.318,-0.433 0.198,-0.263 0.404,-0.518 0.619,-0.767 0.113,-0.132 0.225,-0.265 0.343,-0.392 0.248,-0.269 0.508,-0.527 0.773,-0.777 0.095,-0.089 0.185,-0.183 0.281,-0.269 0.369,-0.331 0.752,-0.645 1.151,-0.938 0.073,-0.055 0.152,-0.1 0.227,-0.154 0.33,-0.234 0.667,-0.456 1.015,-0.663 0.141,-0.085 0.287,-0.161 0.431,-0.241 0.178,-0.098 0.351,-0.206 0.533,-0.297 -0.792,-0.141 -1.591,-0.211 -2.391,-0.211 m -6.995,36.035 c 0.424,0.133 0.856,0.239 1.291,0.329 0.09,0.02 0.181,0.035 0.271,0.052 0.418,0.078 0.839,0.143 1.262,0.183 0.009,10e-4 0.018,0.002 0.026,0.003 0.327,0.031 0.656,0.042 0.985,0.052 0.251,0.005 0.501,0.004 0.752,-0.004 0.08,-0.002 0.159,-0.009 0.239,-0.013 0.483,-0.024 0.964,-0.073 1.443,-0.146 0.099,-0.016 0.198,-0.031 0.296,-0.048 0.314,-0.055 0.625,-0.122 0.934,-0.198 0.263,-0.065 0.524,-0.133 0.782,-0.214 0.159,-0.048 0.316,-0.103 0.474,-0.158 0.378,-0.133 0.755,-0.271 1.122,-0.436 0.058,-0.027 0.117,-0.054 0.175,-0.081 0.411,-0.191 0.816,-0.397 1.208,-0.628 2.541,-1.501 4.58,-3.805 5.739,-6.489 0.218,-0.503 0.396,-1.017 0.552,-1.535 0.048,-0.163 0.085,-0.328 0.128,-0.492 0.095,-0.364 0.177,-0.73 0.242,-1.099 0.015,-0.087 0.027,-0.175 0.04,-0.263 -0.369,0.373 -0.761,0.719 -1.164,1.051 -0.098,0.081 -0.198,0.16 -0.298,0.238 -0.406,0.317 -0.822,0.62 -1.257,0.895 -0.013,0.008 -0.024,0.017 -0.036,0.025 -0.426,0.267 -0.869,0.506 -1.321,0.731 -0.022,0.011 -0.044,0.021 -0.066,0.032 -0.116,0.056 -0.232,0.111 -0.349,0.166 -0.483,0.222 -0.974,0.43 -1.482,0.603 L -4.536,28.6 -4.559,28.592 c -2.022,0.651 -4.138,0.88 -6.167,0.694 -3.284,-0.304 -6.334,-1.63 -8.819,-3.837 -0.378,-0.336 -0.732,-0.692 -1.073,-1.059 -0.109,-0.117 -0.209,-0.241 -0.313,-0.361 -0.226,-0.259 -0.445,-0.522 -0.652,-0.795 -0.11,-0.145 -0.216,-0.292 -0.321,-0.441 -0.188,-0.267 -0.367,-0.539 -0.538,-0.816 -0.093,-0.152 -0.187,-0.301 -0.275,-0.455 -0.179,-0.315 -0.344,-0.638 -0.5,-0.964 -0.058,-0.121 -0.123,-0.239 -0.178,-0.361 -0.201,-0.447 -0.381,-0.903 -0.538,-1.367 -0.039,-0.114 -0.067,-0.231 -0.103,-0.346 -0.112,-0.357 -0.214,-0.717 -0.3,-1.084 -0.041,-0.172 -0.073,-0.347 -0.108,-0.522 -0.036,-0.185 -0.083,-0.366 -0.113,-0.552 -0.997,1.949 -1.516,4.095 -1.516,6.309 0,6.138 3.932,11.495 9.786,13.328 m 11.624,5.98 c 4.47,0 8.564,-2.076 11.234,-5.695 1.787,-2.422 2.731,-5.282 2.731,-8.27 0,-0.982 -0.11,-1.986 -0.327,-2.984 C 8.345,22.105 6.831,19.529 4.595,17.543 4.169,17.165 3.723,16.824 3.266,16.505 3.125,16.406 2.977,16.32 2.833,16.228 2.506,16.017 2.173,15.816 1.832,15.635 1.76,15.597 1.685,15.563 1.611,15.524 c 0.249,0.477 0.464,0.968 0.66,1.465 0.049,0.123 0.096,0.248 0.142,0.373 0.175,0.48 0.333,0.966 0.459,1.461 0.007,0.031 0.018,0.06 0.025,0.09 0.129,0.517 0.221,1.044 0.295,1.574 10e-4,0.003 0.002,0.006 0.002,0.009 L 3.197,20.492 3.2,20.527 c 0.017,0.125 0.03,0.249 0.044,0.375 0.059,0.527 0.101,1.057 0.106,1.593 0,0.01 0.002,0.02 0.002,0.03 l 0.004,0.11 c 0,0.029 -0.003,0.056 -0.004,0.084 l 0.001,0.056 -0.004,0.004 c -0.019,2.07 -0.438,4.083 -1.26,5.983 -1.284,2.973 -3.541,5.525 -6.354,7.186 -0.434,0.256 -0.882,0.483 -1.337,0.695 -0.064,0.029 -0.128,0.06 -0.193,0.089 -0.408,0.182 -0.824,0.339 -1.244,0.484 -0.174,0.061 -0.347,0.12 -0.523,0.175 -0.292,0.089 -0.585,0.169 -0.882,0.241 -0.335,0.083 -0.672,0.152 -1.013,0.213 -0.114,0.02 -0.228,0.038 -0.343,0.056 -0.523,0.081 -1.049,0.134 -1.579,0.16 -0.093,0.004 -0.186,0.012 -0.279,0.015 -0.151,0.004 -0.3,0.024 -0.45,0.024 -0.127,0 -0.253,-0.016 -0.38,-0.02 -0.365,-0.007 -0.729,-0.025 -1.093,-0.058 -0.004,-10e-4 -0.009,-10e-4 -0.013,-10e-4 -0.287,-0.028 -0.574,-0.055 -0.858,-0.098 2.596,2.577 6.061,4.02 9.789,4.02 M -6.381,26.221 c 0.127,0.066 0.257,0.124 0.386,0.186 0.191,0.092 0.382,0.186 0.577,0.269 0.139,0.059 0.281,0.11 0.422,0.165 0.149,0.057 0.299,0.115 0.45,0.167 0.15,-0.054 0.298,-0.112 0.446,-0.172 0.134,-0.053 0.269,-0.104 0.4,-0.161 0.196,-0.085 0.386,-0.18 0.576,-0.274 0.121,-0.059 0.243,-0.114 0.361,-0.177 0.207,-0.109 0.408,-0.229 0.609,-0.349 0.095,-0.057 0.194,-0.109 0.288,-0.168 0.29,-0.182 0.573,-0.374 0.847,-0.577 0.003,-10e-4 0.005,-0.003 0.008,-0.005 0.278,-0.205 0.547,-0.421 0.809,-0.647 0.081,-0.069 0.156,-0.145 0.235,-0.216 C 0.21,24.101 0.388,23.94 0.558,23.771 0.652,23.677 0.739,23.577 0.831,23.481 0.978,23.325 1.126,23.169 1.267,23.006 1.361,22.896 1.449,22.781 1.541,22.669 1.642,22.543 1.742,22.418 1.84,22.289 1.836,22.128 1.827,21.968 1.817,21.809 1.809,21.655 1.804,21.502 1.79,21.35 1.77,21.139 1.74,20.931 1.711,20.723 1.691,20.58 1.677,20.437 1.653,20.296 1.614,20.066 1.563,19.839 1.512,19.612 1.486,19.496 1.467,19.377 1.437,19.262 1.356,18.935 1.262,18.61 1.156,18.29 1.151,18.274 1.147,18.258 1.142,18.242 1.031,17.91 0.907,17.583 0.771,17.261 0.724,17.147 0.668,17.038 0.617,16.927 0.522,16.717 0.429,16.507 0.324,16.302 0.256,16.171 0.18,16.044 0.108,15.915 c -0.1,-0.182 -0.198,-0.363 -0.307,-0.54 -0.084,-0.137 -0.176,-0.27 -0.264,-0.403 -0.086,-0.13 -0.172,-0.259 -0.262,-0.387 -0.145,-0.042 -0.292,-0.081 -0.438,-0.119 -0.142,-0.036 -0.283,-0.076 -0.426,-0.109 -0.21,-0.046 -0.422,-0.083 -0.633,-0.121 -0.124,-0.021 -0.246,-0.048 -0.37,-0.066 -0.261,-0.038 -0.522,-0.065 -0.784,-0.089 -0.078,-0.007 -0.154,-0.018 -0.231,-0.024 -0.692,-0.052 -1.387,-0.053 -2.078,-0.003 -0.048,0.004 -0.097,0.01 -0.145,0.015 -0.293,0.024 -0.585,0.054 -0.875,0.097 -0.095,0.014 -0.189,0.034 -0.283,0.05 -0.241,0.04 -0.482,0.082 -0.72,0.135 -0.122,0.027 -0.242,0.061 -0.362,0.09 -0.163,0.041 -0.326,0.084 -0.487,0.131 -0.093,0.131 -0.183,0.265 -0.271,0.399 -0.083,0.125 -0.169,0.248 -0.247,0.375 -0.111,0.18 -0.213,0.366 -0.316,0.551 -0.067,0.122 -0.139,0.242 -0.203,0.365 -0.107,0.208 -0.203,0.42 -0.299,0.632 -0.048,0.105 -0.102,0.21 -0.148,0.317 -0.136,0.32 -0.26,0.645 -0.372,0.976 -0.002,0.004 -0.003,0.01 -0.004,0.016 -0.109,0.324 -0.206,0.652 -0.291,0.984 -0.029,0.117 -0.05,0.235 -0.076,0.352 -0.051,0.224 -0.103,0.446 -0.142,0.673 -0.025,0.139 -0.04,0.28 -0.06,0.42 -0.03,0.207 -0.061,0.413 -0.082,0.622 -0.015,0.15 -0.021,0.304 -0.031,0.456 -0.01,0.156 -0.02,0.313 -0.025,0.471 0.095,0.127 0.193,0.251 0.292,0.374 0.099,0.123 0.194,0.247 0.296,0.366 0.137,0.159 0.282,0.311 0.425,0.464 0.101,0.107 0.198,0.217 0.302,0.321 0.165,0.165 0.338,0.32 0.511,0.477 0.092,0.082 0.179,0.17 0.273,0.25 0.269,0.23 0.546,0.451 0.831,0.661 0.022,0.016 0.046,0.03 0.068,0.046 0.267,0.193 0.539,0.379 0.818,0.553 0.105,0.065 0.214,0.122 0.32,0.184 0.2,0.118 0.401,0.236 0.607,0.344 m 23.162,-3.586 c 0,-2.994 -0.948,-5.86 -2.741,-8.284 C 11.669,11.146 8.051,9.1 4.115,8.736 1.267,8.477 -1.73,9.118 -4.265,10.614 c -0.454,0.269 -0.886,0.567 -1.304,0.881 -0.135,0.103 -0.262,0.214 -0.393,0.321 -0.276,0.224 -0.546,0.455 -0.804,0.7 -0.056,0.052 -0.109,0.11 -0.165,0.164 0.014,-0.002 0.028,-10e-4 0.042,-0.004 0.491,-0.071 0.985,-0.112 1.481,-0.135 0.121,-0.006 0.243,-0.01 0.364,-0.014 0.127,-0.003 0.253,-0.013 0.381,-0.013 0.873,0 1.738,0.08 2.592,0.224 0.054,0.009 0.108,0.022 0.162,0.032 0.117,0.02 0.232,0.043 0.347,0.066 0.514,0.104 1.024,0.226 1.525,0.383 l 0.235,0.073 0.014,0.02 c 1.97,0.654 3.782,1.692 5.379,3.11 2.475,2.198 4.152,5.052 4.849,8.253 0.241,1.103 0.362,2.214 0.362,3.303 0,0.374 -0.017,0.745 -0.044,1.115 -0.008,0.111 -0.02,0.222 -0.03,0.333 -0.025,0.267 -0.057,0.533 -0.096,0.798 -0.016,0.114 -0.033,0.23 -0.052,0.344 -0.053,0.309 -0.115,0.617 -0.186,0.921 -0.013,0.054 -0.021,0.109 -0.035,0.162 -0.087,0.354 -0.189,0.703 -0.3,1.05 -0.033,0.1 -0.07,0.199 -0.104,0.299 -0.088,0.252 -0.181,0.503 -0.282,0.751 -0.045,0.111 -0.091,0.223 -0.139,0.333 -0.114,0.262 -0.236,0.52 -0.364,0.776 -0.039,0.077 -0.073,0.155 -0.113,0.23 -0.011,0.02 -0.019,0.041 -0.03,0.061 4.715,-2.323 7.754,-7.112 7.754,-12.516 M 7.617,37.332 c -2.92,3.825 -7.485,6.111 -12.28,6.111 -4.802,0 -9.372,-2.291 -12.292,-6.127 -6.358,-2.095 -10.618,-7.962 -10.618,-14.681 0,-3.191 0.98,-6.249 2.823,-8.868 0.069,-8.469 6.974,-15.339 15.458,-15.339 1.603,0 3.201,0.263 4.756,0.768 C -3.057,-1.261 -1.533,-1.5 0,-1.5 c 8.404,0 15.246,6.772 15.38,15.156 1.894,2.644 2.901,5.741 2.901,8.979 0,6.742 -4.277,12.615 -10.664,14.697"
             style="fill-opacity:1;fill-rule:nonzero;stroke:none"
             id="path22"
             inkscape:connector-curvature="0" />
        </g>
      </g>
    </g>
  </g>
</svg>
